<?xml version="1.0" encoding="utf-8"?>
<!-- Generator: Adobe Illustrator 26.3.1, SVG Export Plug-In . SVG Version: 6.00 Build 0)  -->
<svg version="1.1" xmlns="http://www.w3.org/2000/svg" xmlns:xlink="http://www.w3.org/1999/xlink" x="0px" y="0px"
	 viewBox="0 0 100 100" style="enable-background:new 0 0 100 100;" xml:space="preserve">
<style type="text/css">
	.st0{fill:#101010;}
	.st1{fill:#00B1AA;}
	.st2{fill:#00AFAA;}
	.st3{fill:#814C9E;}
	.st4{fill:#FFFFFF;}
	.st5{fill:#111010;}
	.st6{fill:#282828;}
	.st7{fill:#232323;}
	.st8{fill:#00B1AA;stroke:#232323;stroke-width:4;stroke-miterlimit:10;}
	.st9{fill:#CC7128;}
	.st10{fill:#909090;}
	.st11{fill:#C7982D;}
	.st12{fill:#A7A7A7;}
</style>
<g id="background">
</g>
<g id="Layer_1">
	<g>
		<circle class="st6" cx="50" cy="50" r="50"/>
		<g>
			<path class="st1" d="M50.939,81.917L21.023,64.645c-1.301-0.751-1.746-2.414-0.995-3.715l25.318-43.852
				c0.751-1.301,2.414-1.746,3.715-0.995l29.916,17.272c1.301,0.751,1.746,2.414,0.995,3.715L54.654,80.921
				C53.903,82.222,52.24,82.668,50.939,81.917z"/>
			
				<rect x="36.873" y="26.338" transform="matrix(0.866 0.5 -0.5 0.866 29.9484 -19.6854)" class="st6" width="29.669" height="39.408"/>
			<g>
				<path class="st1" d="M54.363,54.643c0.152-0.494,0.198-1.021,0.127-1.533c-0.076-0.548-0.279-1.07-0.421-1.605
					c-0.195-0.733-0.276-1.496-0.241-2.254c0.033-0.701,0.165-1.405,0.062-2.098c-0.136-0.908-0.695-1.743-1.483-2.214
					c-0.788-0.471-1.788-0.569-2.652-0.259c-0.642,0.23-1.188,0.662-1.774,1.011c-0.71,0.423-1.489,0.728-2.298,0.899
					c-0.426,0.09-0.861,0.144-1.276,0.275c-0.852,0.268-1.595,0.868-2.037,1.645c-0.891,1.566-0.447,3.991,1.431,4.614
					c1.059,0.351,2.308-0.116,3.291,0.412c1.162,0.623,1.338,2.287,2.374,3.103c0.595,0.469,1.414,0.589,2.158,0.45
					c0.886-0.166,1.702-0.683,2.229-1.415C54.079,55.361,54.25,55.011,54.363,54.643z"/>
				<path class="st1" d="M60.347,39.24c1.155,0.874,1.081,2.917-0.164,4.564c-1.246,1.647-3.192,2.274-4.347,1.4
					C54.68,44.331,54.754,42.288,56,40.64C57.245,38.993,59.192,38.367,60.347,39.24"/>
				<path class="st1" d="M54.697,39.844c-0.874,1.871-2.646,2.892-3.958,2.279c-1.312-0.613-1.668-2.626-0.794-4.498
					c0.874-1.871,2.646-2.891,3.958-2.279C55.215,35.959,55.57,37.973,54.697,39.844"/>
				<path class="st1" d="M61.828,47.003c1.048,0.999,0.751,3.013-0.664,4.498c-1.415,1.485-3.413,1.879-4.461,0.88
					c-1.048-0.999-0.751-3.013,0.665-4.498C58.783,46.398,60.78,46.004,61.828,47.003"/>
				<path class="st1" d="M47.654,42.031c-0.651,1.945-2.293,3.15-3.666,2.69c-1.373-0.46-1.958-2.41-1.307-4.355
					c0.651-1.945,2.293-3.15,3.666-2.69C47.72,38.135,48.305,40.085,47.654,42.031"/>
			</g>
			
				<ellipse transform="matrix(0.8745 -0.4851 0.4851 0.8745 -28.2154 27.4349)" class="st6" cx="38.897" cy="68.23" rx="3.176" ry="3.176"/>
		</g>
	</g>
</g>
</svg>
