<?xml version="1.0" encoding="utf-8"?>
<!-- Generator: Adobe Illustrator 26.3.1, SVG Export Plug-In . SVG Version: 6.00 Build 0)  -->
<svg version="1.1" xmlns="http://www.w3.org/2000/svg" xmlns:xlink="http://www.w3.org/1999/xlink" x="0px" y="0px"
	 viewBox="0 0 100 100" style="enable-background:new 0 0 100 100;" xml:space="preserve">
<style type="text/css">
	.st0{fill:#101010;}
	.st1{fill:#0DADA9;}
	.st2{fill:#4DACA9;}
	.st3{fill:#795099;}
	.st4{fill:#FFFFFF;}
	.st5{fill:#282828;}
	.st6{fill:#232323;}
	.st7{fill:#0DADA9;stroke:#232323;stroke-width:4;stroke-miterlimit:10;}
	.st8{fill:#C07539;}
	.st9{fill:#909090;}
	.st10{fill:#C09943;}
	.st11{fill:#A7A7A7;}
</style>
<g id="background">
</g>
<g id="Layer_1">
	<g>
		<circle class="st5" cx="50" cy="50" r="50"/>
		<path class="st1" d="M55.79,74.61c-1.075,0-2.15,0-3.225,0c-0.726-0.087-1.454-0.16-2.178-0.263
			c-5.427-0.766-10.224-2.934-14.331-6.56c-4.838-4.271-7.863-9.586-8.976-15.959c-0.18-1.034-0.284-2.081-0.423-3.122
			c0-1.075,0-2.15,0-3.225c0.032-0.172,0.082-0.342,0.094-0.515c0.166-2.48,0.685-4.888,1.531-7.219
			c4.812-13.256,18.792-20.725,32.5-17.376c14.142,3.455,23.206,17.601,20.433,31.884c-1.063,5.477-3.545,10.214-7.468,14.173
			c-4.113,4.151-9.054,6.764-14.826,7.759C57.883,74.365,56.834,74.471,55.79,74.61z M72.84,32.16
			c-1.52,0.962-2.286,1.255-3.523,0.782c-1.434-0.549-2.653-0.341-3.979,0.31c-1.269,0.623-2.624,0.518-3.724-0.453
			c-0.686-0.606-1.302-1.333-1.798-2.103c-0.635-0.985-0.592-2.085,0.123-3.022c0.68-0.893,1.489-1.689,2.242-2.527
			c0.124-0.138,0.251-0.273,0.404-0.438c-4.088-1.499-8.191-1.879-12.47-1.175c0.314,0.834,0.62,1.577,0.875,2.337
			c0.454,1.352,1.044,2.686,1.275,4.078c0.409,2.466-0.487,5.132-3.846,5.329c-0.91,0.054-1.683,0.35-2.389,0.939
			c-1.016,0.848-2.218,1.11-3.526,0.946c-0.39-0.049-0.787-0.073-1.178-0.058c-0.266,0.01-0.528,0.109-0.889,0.191
			c0.175,0.132,0.243,0.186,0.315,0.237c1.293,0.913,2.756,1.36,4.312,1.489c2.755,0.229,4.68,1.516,5.56,4.209
			c0.102,0.311,0.266,0.602,0.419,0.94c0.301-0.203,0.52-0.356,0.745-0.501c0.823-0.531,1.714-0.79,2.701-0.697
			c1.803,0.171,3.213,1.085,4.345,2.417c1.909,2.247,1.592,5.129-0.484,6.76c-1.224,0.961-2.365,2.029-3.54,3.052
			c-0.458,0.399-0.747,0.852-0.53,1.505c0.1,0.302,0.131,0.63,0.172,0.949c0.226,1.774-0.595,3.08-2.255,3.597
			c-0.944,0.294-0.896,0.302-1.051,1.258c-0.164,1.017-0.289,2.078-0.683,3.013c-1.049,2.488-3.942,2.891-5.728,0.873
			c-0.741-0.837-1.118-1.845-1.185-2.935c-0.079-1.304-0.528-2.406-1.338-3.43c-0.513-0.648-0.897-1.417-1.24-2.176
			c-0.458-1.015-0.318-2.112-0.223-3.181c0.078-0.885-0.159-1.612-0.809-2.226c-0.376-0.356-0.702-0.765-1.051-1.15
			c-0.963-1.059-1.52-2.29-1.547-3.733c-0.01-0.518,0.018-1.038,0.055-1.555c0.031-0.429-0.095-0.726-0.467-0.992
			c-1.754-1.253-3.361-2.677-4.798-4.288c-0.24-0.269-0.465-0.553-0.72-0.856c-3.361,10.141,0.637,22.855,12.132,28.631
			c10.349,5.201,21.987,1.778,27.97-5.039c-0.041-0.033-0.082-0.067-0.124-0.101c-2.309-1.862-2.87-3.795-1.949-6.605
			c0.328-1,0.676-2.004,0.88-3.033c0.254-1.28-0.003-1.674-1.224-2.121c-1.793-0.657-3.461-1.548-5.033-2.62
			c-1.282-0.874-2.027-2.048-1.927-3.661c0.132-2.123,0.88-4.023,2.231-5.642c1.679-2.013,3.809-2.775,6.386-1.972
			c0.717,0.223,1.434,0.449,2.135,0.717c1.191,0.455,2.403,0.394,3.673,0.254C75.657,36.278,74.417,34.123,72.84,32.16z"/>
		<g>
			<path class="st6" d="M45.282,51.716l-2.221-0.004c-0.862-1.083-2.125-2.672-2.759-3.483c-0.847-1.083-1.889-1.861-3.073-2.334
				c1.208-1.868,1.615-4.142,1.106-6.365c-0.703-3.071-3.149-5.484-6.231-6.148c-0.597-0.128-1.204-0.193-1.804-0.193
				c-2.511,0-4.855,1.12-6.431,3.073c-1.573,1.95-2.166,4.494-1.628,6.978c0.163,0.753,0.434,1.466,0.79,2.127
				c-2.093,0.031-3.85,0.922-4.953,2.526c-0.482,0.701-0.812,1.517-0.982,2.426c-0.06,0.324-0.202,1.082-0.125,14.101
				c0,2.632,2.156,4.787,4.805,4.787c0.027,0,0.054,0,0.081-0.001l0.003,12.668c0,1.857,1.511,3.367,3.368,3.367h3.991
				c0.37,0,0.725-0.06,1.058-0.17c0.333,0.11,0.689,0.17,1.058,0.17h3.972c1.857,0,3.368-1.511,3.368-3.368l0.028-20.916
				c0.451,0.202,0.946,0.309,1.457,0.309l0.113,0c0.952,0,4.11,0.018,4.794,0.022c0.063,0.004,0.135,0.007,0.213,0.007
				c2.641,0,4.79-2.149,4.79-4.79S47.924,51.716,45.282,51.716z"/>
			<g>
				<path class="st1" d="M29.058,46.534c3.851,0.887,7.234-2.49,6.354-6.335c-0.441-1.925-2.007-3.469-3.937-3.884
					c-3.815-0.821-7.124,2.483-6.3,6.29C25.592,44.532,27.136,46.091,29.058,46.534z"/>
			</g>
			<g>
				<path class="st1" d="M45.282,54.716L45.282,54.716l-3.668-0.007c0,0-2.651-3.323-3.674-4.632
					c-1.025-1.311-2.391-1.666-4.152-1.683c-3.487-0.033-5.953-0.033-9.962,0.008c-1.359,0.014-2.807,1.296-3.55,2.377
					c-0.268,0.389-0.42,0.823-0.505,1.277c-0.149,0.8-0.074,13.533-0.074,13.533c0,0.997,0.808,1.805,1.805,1.805
					c0.884,0,1.615-0.636,1.771-1.475V55.305c0-0.553,0.363-1,0.81-1s0.81,0.447,0.81,1v13.349c0,0.067-0.021,0.125-0.031,0.188
					c0.001,6.802,0.002,13.032,0.002,13.032c0,0.203,0.165,0.368,0.368,0.368h3.991c0.013,0,0.025-0.006,0.038-0.008V70.221
					c0-0.553,0.448-1,1-1s1,0.447,1,1v12.004c0.026,0.006,0.051,0.016,0.078,0.016h3.972c0.203,0,0.368-0.165,0.368-0.368
					c0,0,0.024-18.127,0.036-26.494c0-0.392-0.044-0.813,0.454-0.964c0.463-0.141,0.764,0.09,1.032,0.445
					c0.515,0.681,2.025,2.569,2.529,3.199c0.107,0.134,0.264,0.207,0.436,0.207c0.878-0.002,5.055,0.022,5.055,0.022
					c0.022,0.001,0.042,0.006,0.064,0.006c0.989,0,1.79-0.801,1.79-1.79C47.072,55.517,46.271,54.716,45.282,54.716z"/>
			</g>
		</g>
	</g>
</g>
</svg>
