<?xml version="1.0" encoding="utf-8"?>
<!-- Generator: Adobe Illustrator 26.3.1, SVG Export Plug-In . SVG Version: 6.00 Build 0)  -->
<svg version="1.1" xmlns="http://www.w3.org/2000/svg" xmlns:xlink="http://www.w3.org/1999/xlink" x="0px" y="0px"
	 viewBox="0 0 100 100" style="enable-background:new 0 0 100 100;" xml:space="preserve">
<style type="text/css">
	.st0{fill:#101010;}
	.st1{fill:#0DADA9;}
	.st2{fill:#4DACA9;}
	.st3{fill:#795099;}
	.st4{fill:#FFFFFF;}
	.st5{fill:#282828;}
	.st6{fill:#232323;}
	.st7{fill:#0DADA9;stroke:#232323;stroke-width:4;stroke-miterlimit:10;}
	.st8{fill:#C07539;}
	.st9{fill:#909090;}
	.st10{fill:#C09943;}
	.st11{fill:#A7A7A7;}
</style>
<g id="background">
</g>
<g id="Layer_1">
	<g>
		<circle class="st5" cx="50" cy="50" r="50"/>
		<g>
			<g>
				<path class="st1" d="M62.594,55c0.91,0.812,1.657,1.754,2.171,2.835c0.774,1.628,1.134,3.408,1.551,5.149
					c0.483,2.015,1.028,4.012,1.541,6.018c0.624,2.436,0.432,4.814-0.726,6.993c-0.941,1.772-2.087,3.44-3.403,4.954
					c-1.006,1.158-2.103,2.648-3.561,3.191c-1.674,0.623-3.499,0.838-5.274,0.663c-0.918-0.09-1.826-0.285-2.698-0.586
					c-0.247-0.085-2.105-1.079-2.186-1.027c-2.86,1.845-6.626,2.116-9.769,0.856c-3.166-1.27-5.712-4.971-7.292-7.884
					c-1.206-2.224-1.451-4.637-0.816-7.132c0.527-2.069,1.062-4.135,1.596-6.201c0.57-2.206,0.819-4.316,2.051-6.237
					c1.281-1.997,3.778-3.024,5.883-3.888c2.377-0.976,4.799-1.682,7.38-1.815C53.226,50.675,59.102,51.882,62.594,55z"/>
				<path class="st6" d="M42.972,72.435h14.045c0.593,0,0.9,0.708,0.494,1.141l-7.028,7.497c-0.262,0.279-0.705,0.279-0.967,0
					l-7.036-7.505C42.078,73.139,42.383,72.435,42.972,72.435z"/>
				<g>
					<path class="st1" d="M28.351,65.932c-2.319,0-4.245-1.585-4.681-3.854l-2.43-12.635c-0.167-0.866,0.06-1.752,0.621-2.431
						c0.562-0.68,1.389-1.069,2.27-1.069h15.14c1.106,0,2.109,0.61,2.616,1.594c0.507,0.982,0.425,2.153-0.215,3.055l-9.463,13.338
						C31.306,65.203,29.9,65.932,28.351,65.932z"/>
					<path class="st6" d="M39.272,47.943c0.767,0,1.214,0.865,0.77,1.491l-9.464,13.338c-0.563,0.794-1.399,1.161-2.226,1.161
						c-1.231,0-2.444-0.811-2.717-2.233l-2.43-12.634c-0.112-0.582,0.334-1.123,0.927-1.123H39.272 M39.272,43.943h-15.14
						c-1.48,0-2.869,0.654-3.812,1.795c-0.943,1.141-1.323,2.629-1.043,4.082l2.43,12.635c0.61,3.174,3.405,5.477,6.645,5.477
						c2.205,0,4.205-1.037,5.489-2.846l9.464-13.338c1.075-1.515,1.213-3.48,0.36-5.13C42.812,44.968,41.129,43.943,39.272,43.943
						L39.272,43.943z"/>
				</g>
				<g>
					<path class="st1" d="M71.649,65.932c-1.548,0-2.954-0.729-3.857-2.003l-9.464-13.339c-0.64-0.899-0.724-2.07-0.216-3.054
						c0.507-0.983,1.51-1.594,2.616-1.594h15.14c0.882,0,1.71,0.39,2.271,1.07c0.561,0.68,0.787,1.565,0.62,2.431l-2.43,12.634
						C75.893,64.347,73.968,65.932,71.649,65.932L71.649,65.932z"/>
					<path class="st6" d="M75.868,47.943c0.593,0,1.039,0.54,0.927,1.123L74.366,61.7c-0.273,1.422-1.486,2.233-2.717,2.233
						c-0.827,0-1.663-0.367-2.226-1.161l-9.464-13.338c-0.444-0.625,0.003-1.491,0.77-1.491H75.868 M75.868,43.943h-15.14
						c-1.857,0-3.54,1.025-4.393,2.675c-0.852,1.65-0.714,3.616,0.36,5.13l9.464,13.338c1.283,1.809,3.284,2.846,5.489,2.846
						c3.24,0,6.035-2.304,6.645-5.477l2.43-12.634c0.279-1.454-0.101-2.942-1.043-4.083C78.738,44.597,77.348,43.943,75.868,43.943
						L75.868,43.943z"/>
				</g>
				<line class="st7" x1="50" y1="85.472" x2="50" y2="75.845"/>
			</g>
			<g>
				<path class="st1" d="M50.633,14.068l2.871,6.181c0.023,0.05,0.071,0.085,0.126,0.091l6.902,0.755
					c0.136,0.015,0.191,0.184,0.088,0.276l-5.124,4.567c-0.042,0.038-0.061,0.095-0.05,0.151l1.397,6.639
					c0.028,0.133-0.113,0.237-0.232,0.171l-6.045-3.354c-0.048-0.027-0.106-0.027-0.154,0l-6.045,3.354
					c-0.119,0.066-0.26-0.038-0.232-0.171l1.397-6.639c0.012-0.056-0.007-0.113-0.05-0.151l-5.124-4.567
					c-0.102-0.091-0.048-0.261,0.088-0.276l6.902-0.755c0.055-0.006,0.103-0.04,0.126-0.091l2.871-6.181
					C50.403,13.946,50.577,13.946,50.633,14.068z"/>
				<path class="st1" d="M27.497,26.326l2.221,4.781c0.023,0.05,0.071,0.085,0.126,0.091l5.337,0.584
					c0.136,0.015,0.191,0.184,0.088,0.276l-3.961,3.531c-0.042,0.038-0.061,0.095-0.05,0.151l1.08,5.133
					c0.028,0.133-0.113,0.237-0.232,0.171l-4.676-2.595c-0.048-0.027-0.106-0.027-0.154,0L22.6,41.043
					c-0.119,0.066-0.26-0.038-0.232-0.171l1.08-5.133c0.012-0.056-0.007-0.113-0.05-0.151l-3.961-3.531
					c-0.102-0.091-0.048-0.261,0.088-0.276l5.337-0.584c0.055-0.006,0.103-0.04,0.126-0.091l2.22-4.781
					C27.266,26.204,27.44,26.204,27.497,26.326z"/>
				<path class="st1" d="M72.918,26.326l2.221,4.781c0.023,0.05,0.071,0.085,0.126,0.091l5.337,0.584
					c0.136,0.015,0.191,0.184,0.088,0.276l-3.961,3.531c-0.042,0.038-0.061,0.095-0.05,0.151l1.08,5.133
					c0.028,0.133-0.113,0.237-0.232,0.171l-4.676-2.595c-0.048-0.027-0.106-0.027-0.154,0l-4.676,2.595
					c-0.119,0.066-0.26-0.038-0.232-0.171l1.08-5.133c0.012-0.056-0.007-0.113-0.05-0.151l-3.961-3.531
					c-0.102-0.091-0.048-0.261,0.088-0.276l5.337-0.584c0.055-0.006,0.103-0.04,0.126-0.091l2.22-4.781
					C72.687,26.204,72.861,26.204,72.918,26.326z"/>
			</g>
		</g>
	</g>
</g>
</svg>
