<?xml version="1.0" encoding="utf-8"?>
<!-- Generator: Adobe Illustrator 26.3.1, SVG Export Plug-In . SVG Version: 6.00 Build 0)  -->
<svg version="1.1" xmlns="http://www.w3.org/2000/svg" xmlns:xlink="http://www.w3.org/1999/xlink" x="0px" y="0px"
	 viewBox="0 0 100 100" style="enable-background:new 0 0 100 100;" xml:space="preserve">
<style type="text/css">
	.st0{fill:#101010;}
	.st1{fill:#0DADA9;}
	.st2{fill:#4DACA9;}
	.st3{fill:#795099;}
	.st4{fill:#FFFFFF;}
	.st5{fill:#282828;}
	.st6{fill:#232323;}
	.st7{fill:#0DADA9;stroke:#232323;stroke-width:4;stroke-miterlimit:10;}
	.st8{fill:#C07539;}
	.st9{fill:#909090;}
	.st10{fill:#C09943;}
	.st11{fill:#A7A7A7;}
</style>
<g id="background">
</g>
<g id="Layer_1">
	<g>
		<circle class="st5" cx="50" cy="50" r="50"/>
		<g>
			<path class="st1" d="M66.082,26.556H24.996c-0.786,0-1.423,0.637-1.423,1.423v27.062v1.718v1.358c0,0.768,0.623,1.39,1.391,1.39
				h4.101v11.763l13.729-11.766h23.289c0.786,0,1.423-0.637,1.423-1.423V27.979C67.505,27.193,66.868,26.556,66.082,26.556z
				 M34.556,47.069c-1.852,0-3.354-1.502-3.354-3.354c0-1.852,1.502-3.354,3.354-3.354s3.354,1.502,3.354,3.354
				C37.91,45.567,36.408,47.069,34.556,47.069z M45.539,47.069c-1.852,0-3.354-1.502-3.354-3.354c0-1.852,1.502-3.354,3.354-3.354
				c1.852,0,3.354,1.502,3.354,3.354C48.893,45.567,47.391,47.069,45.539,47.069z M56.522,47.069c-1.852,0-3.354-1.502-3.354-3.354
				c0-1.852,1.502-3.354,3.354-3.354c1.852,0,3.354,1.502,3.354,3.354C59.876,45.567,58.374,47.069,56.522,47.069z"/>
			<path class="st1" d="M76.005,44.716h-4.068v16.475c0,1.648-1.373,2.746-2.746,2.746H44.479v1.477v1.269v1.379
				c0,0.768,0.623,1.391,1.391,1.391h6.55c0.082,0,0.161-0.01,0.239-0.024h8.295l10.983,9.02v-9.02h4.068
				c0.786,0,1.423-0.637,1.423-1.423V46.139C77.428,45.353,76.791,44.716,76.005,44.716z"/>
		</g>
	</g>
</g>
</svg>
