<?xml version="1.0" encoding="utf-8"?>
<!-- Generator: Adobe Illustrator 26.3.1, SVG Export Plug-In . SVG Version: 6.00 Build 0)  -->
<svg version="1.1" xmlns="http://www.w3.org/2000/svg" xmlns:xlink="http://www.w3.org/1999/xlink" x="0px" y="0px"
	 viewBox="0 0 100 100" style="enable-background:new 0 0 100 100;" xml:space="preserve">
<style type="text/css">
	.st0{fill:#101010;}
	.st1{fill:#0DADA9;}
	.st2{fill:#4DACA9;}
	.st3{fill:#795099;}
	.st4{fill:#FFFFFF;}
	.st5{fill:#282828;}
	.st6{fill:#232323;}
	.st7{fill:#0DADA9;stroke:#232323;stroke-width:4;stroke-miterlimit:10;}
	.st8{fill:#C07539;}
	.st9{fill:#909090;}
	.st10{fill:#C09943;}
	.st11{fill:#A7A7A7;}
</style>
<g id="background">
</g>
<g id="Layer_1">
	<g>
		<circle class="st5" cx="50" cy="50" r="50"/>
		<g>
			<g>
				<g>
					<path class="st1" d="M75.523,40.586l3.81,6.599c0.305,0.527,0.124,1.202-0.404,1.506l-5.997,3.463
						c-0.125-0.18-0.248-0.362-0.359-0.556C70.35,47.748,71.673,42.809,75.523,40.586z"/>
				</g>
				<g>
					<path class="st1" d="M63.916,20.483l3.479,6.026c-3.85,2.222-8.789,0.899-11.012-2.95c0,0,0,0,0,0l6.026-3.479
						C62.938,19.775,63.612,19.956,63.916,20.483z"/>
				</g>
				<g>
					<path class="st1" d="M30.756,75.231l-3.81-6.599c3.849-2.222,8.789-0.899,11.012,2.951c0.112,0.193,0.208,0.391,0.301,0.589
						l-5.997,3.462C31.735,75.939,31.06,75.758,30.756,75.231z"/>
				</g>
				<g>
					<path class="st1" d="M18.819,54.555l-3.479-6.026c-0.305-0.527-0.124-1.202,0.404-1.506l6.026-3.479c0,0,0,0,0,0
						C23.991,47.393,22.668,52.333,18.819,54.555z"/>
				</g>
				<g>
					<path class="st1" d="M20.994,58.324l3.776,6.54c5.927-3.422,13.533-1.384,16.956,4.544c0.112,0.193,0.201,0.393,0.301,0.589
						l27.136-15.667c-0.12-0.185-0.248-0.362-0.359-0.556c-3.422-5.928-1.384-13.534,4.543-16.956l-3.776-6.54
						c-5.928,3.422-13.534,1.384-16.956-4.543c0,0,0,0,0,0L25.537,41.368c0,0,0,0,0,0C28.959,47.295,26.921,54.902,20.994,58.324z
						 M38.471,52.975c-2.827-4.896-1.149-11.157,3.747-13.983s11.157-1.149,13.983,3.747s1.149,11.157-3.747,13.983
						C47.558,59.549,41.298,57.871,38.471,52.975z"/>
				</g>
			</g>
			<g>
				<g>
					<path class="st1" d="M70.762,68.968c-8.45,0-15.325-6.875-15.325-15.325s6.875-15.325,15.325-15.325
						s15.325,6.875,15.325,15.325S79.212,68.968,70.762,68.968z"/>
					<path class="st6" d="M70.762,40.318c7.359,0,13.325,5.966,13.325,13.325c0,7.359-5.966,13.325-13.325,13.325
						s-13.325-5.966-13.325-13.325C57.437,46.284,63.403,40.318,70.762,40.318 M70.328,58.022c-0.091,0-0.18-0.007-0.265-0.022
						c-0.944-0.167-1.875-0.441-2.787-0.743c-0.141-0.046-0.259-0.074-0.359-0.074c-0.206,0-0.334,0.115-0.415,0.414
						c-0.122,0.451-0.257,0.898-0.39,1.346c-0.137,0.46,0.007,0.785,0.463,0.946c0.504,0.179,1.005,0.38,1.523,0.504
						c0.362,0.086,0.724,0.172,1.09,0.241c0.229,0.044,0.317,0.001,0.304,0.247c-0.022,0.406-0.014,0.794-0.002,1.2
						c0.014,0.46,0.211,0.671,0.659,0.672c0.068,0,0.136,0,0.203,0c0.105,0,0.211,0,0.316,0c1.13-0.002,1.156-0.028,1.16-1.159
						c0.001-0.27-0.007-0.539-0.014-0.809c-0.002-0.072-0.001-0.153,0.05-0.205c0.028-0.029,0.068-0.043,0.105-0.057
						c0.246-0.089,0.475-0.234,0.72-0.333c0.257-0.104,0.506-0.228,0.743-0.371c1.12-0.675,1.888-1.721,2.013-3.044
						c0.177-1.861-0.7-3.201-2.317-4.062c-0.625-0.333-1.3-0.568-1.937-0.879c-0.465-0.226-0.945-0.451-1.348-0.767
						c-0.707-0.554-0.553-1.478,0.277-1.832c0.204-0.087,0.44-0.167,0.658-0.167c0.032,0,0.063,0.002,0.094,0.005
						c0.818,0.097,1.654,0.167,2.436,0.402c0.38,0.114,0.613,0.194,0.771,0.194c0.256,0,0.317-0.209,0.499-0.821
						c0.005-0.017,0.01-0.033,0.015-0.05c0.469-1.601,0.457-1.623-1.184-2.054c-0.24-0.063-0.49-0.072-0.732-0.128
						c-0.181-0.042-0.6-0.062-0.698-0.225c-0.088-0.146-0.03-0.525-0.031-0.694c-0.001-0.217,0-0.435-0.02-0.652
						c-0.029-0.31-0.161-0.483-0.476-0.502c-0.19-0.012-0.38-0.031-0.57-0.032c-0.102-0.001-0.196-0.002-0.282-0.002
						c-0.935,0-0.936,0.093-0.95,1.188c-0.004,0.293-0.014,0.568-0.001,0.863c-0.27,0.109-0.537,0.222-0.806,0.333
						c-0.271,0.112-0.536,0.243-0.794,0.382c-2.164,1.163-2.7,4.587-0.42,6.145c0.805,0.55,1.741,0.907,2.614,1.358
						c0.505,0.261,1.055,0.471,1.494,0.818c0.828,0.656,0.661,1.774-0.318,2.175C71.086,57.911,70.692,58.022,70.328,58.022
						 M70.762,36.318c-9.553,0-17.325,7.772-17.325,17.325s7.772,17.325,17.325,17.325s17.325-7.772,17.325-17.325
						S80.315,36.318,70.762,36.318L70.762,36.318z"/>
				</g>
			</g>
		</g>
	</g>
</g>
</svg>
