<?xml version="1.0" encoding="utf-8"?>
<!-- Generator: Adobe Illustrator 26.3.1, SVG Export Plug-In . SVG Version: 6.00 Build 0)  -->
<svg version="1.1" id="Layer_1" xmlns="http://www.w3.org/2000/svg" xmlns:xlink="http://www.w3.org/1999/xlink" x="0px" y="0px"
	 viewBox="0 0 65 60" style="enable-background:new 0 0 65 60;" xml:space="preserve">
<style type="text/css">
	.st0{fill:#909090;}
</style>
<g id="background">
</g>
<g>
	<path class="st0" d="M54,46l-0.2-0.7l-0.4-1.1l-0.3-0.7l-0.7-1.3l-1-1.3l-1.3-1.2l-1.5-1.4l-1.3-1.2L46.2,36l-1-1.3l-0.9-1.4
		l-1-1.8l-0.6-1.3l-0.7-1.4L41,27.2L40,25.9l-0.7-0.7l-0.7-0.7l-1-0.7l-1.2-0.5l-1.5-0.5l-1.5-0.2h-1.6l-1.5,0.2L28,23.5l-2.1,1.5
		l-1.4,1.4l-0.9,1.3l-0.9,1.5l-1.1,2.3l-1.1,2l-1.2,1.6L18,36.9l-4.3,4l-0.4,0.3l-1,1.4l-0.8,1.6l-0.5,2L10.8,48l-0.1,2l0.2,1.3
		l0.6,1.8l0.9,1.7l0.9,1.2l1.2,1.2l1.6,1.1l1.8,0.9l1.4,0.3l2.1,0.1l2-0.5l1.3-0.6l0.5-0.4l1.2-0.7l1.1-0.7l1-0.6l1.1-0.5l0.9-0.4
		l1-0.3l1.1-0.1l1.3,0.2l0.9,0.2l1.5,0.7L38,57l1.5,1l1.4,0.8l1.4,0.6l1.3,0.3l1.1,0.1l0.9-0.1l1.5-0.4l1.8-0.9l1.3-0.9l1.4-1.4
		l1-1.3l0.9-1.8l0.5-1.7l0.2-1.5v-1.5l-0.1-0.9L54,46z"/>
	<path class="st0" d="M42.7,0.3c3.9,0.4,6.6,5.3,6,10.9c-0.6,5.6-4.2,9.8-8.2,9.4c-3.9-0.4-6.6-5.3-6-10.9
		C35.2,4.1,38.8-0.1,42.7,0.3"/>
	<path class="st0" d="M30.4,9.7c0.6,5.6-2.1,10.4-6,10.9c-3.9,0.4-7.6-3.8-8.2-9.4c-0.6-5.6,2.1-10.4,6-10.9
		C26.2-0.1,29.8,4.1,30.4,9.7"/>
	<path class="st0" d="M57.1,16.3c3.8,0.9,6,6,4.8,11.4c-1.2,5.4-5.3,9.2-9.1,8.3c-3.8-0.9-6-6-4.8-11.4
		C49.1,19.2,53.2,15.5,57.1,16.3"/>
	<path class="st0" d="M17.1,24.6c1.2,5.4-0.9,10.5-4.8,11.4c-3.8,0.9-7.9-2.9-9.1-8.3C2,22.3,4.1,17.2,7.9,16.3
		C11.8,15.5,15.9,19.2,17.1,24.6"/>
</g>
</svg>
